<svg width="468" height="192" viewBox="0 0 468 192" fill="none" xmlns="http://www.w3.org/2000/svg">
<path d="M187.3 14.961L180.27 0H219.94V48.8727C219.438 59.8442 232.796 73.8078 248.562 73.8078L245.549 76.8C229.983 76.8 218.433 62.3377 217.429 52.3636C213.412 65.8286 205.378 76.8 189.811 76.8H163.7L171.232 61.3403C175.249 61.5065 184.79 61.7392 190.815 61.3403C198.348 60.8416 202.867 52.8623 202.867 46.8779V14.961H187.3Z" fill="#2D7BC8"/>
<path d="M233.498 3.49092H230.485V44.3844C230.485 58.3481 241.03 65.7289 251.073 65.3299C267.543 65.3299 270.991 51.3662 270.657 44.3844V7.48052L282.206 3.49092V44.3844L284.717 42.8883V0L267.644 5.48572V44.3844C267.644 69.3195 233.498 66.826 233.498 44.3844V3.49092Z" fill="#2D7BC8"/>
<path d="M30.1288 93.1175H7.40005L11.6286 100.093H22.7287V126.001C22.7287 129.821 19.3458 137.56 5.81432 137.959L0 144.982C6.87147 145.481 30.1288 143.439 30.1288 124.506V93.1175Z" fill="#2D7BC8"/>
<path fill-rule="evenodd" clip-rule="evenodd" d="M51.2189 93.1175H57.2446L77.3305 144.982H69.7983L63.7725 129.827H44.691L38.1631 144.982H30.1288L51.2189 93.1175ZM47.2017 123.464C47.6034 122.681 52.0558 110.738 54.2318 104.865L61.2618 123.464H47.2017Z" fill="#2D7BC7"/>
<path d="M88.9752 144.982H81.3476V93.1175H87.4497L114.4 130.665V93.1175H121.519V144.982H115.494L88.9752 109.915V144.982Z" fill="#327BC7"/>
<path d="M158.678 93.1175H125.536V144.982H158.176V138.196H133.069V122.685H158.176V115.899H133.069V100.388H158.678V93.1175Z" fill="#2D7BC8"/>
<path d="M170.343 93.1175H162.695V144.982H195.837V138.132H170.343V93.1175Z" fill="#2C7BC8"/>
<path fill-rule="evenodd" clip-rule="evenodd" d="M220.442 93.1175H226.97L248.06 144.987H240.026L233.852 129.476H213.555L207.466 144.987H199.854L220.442 93.1175ZM223.703 105.24C223.703 106.016 219.644 117.196 217.614 122.69H229.793L223.703 105.24Z" fill="#2C7BC8"/>
<path d="M254.588 95.1123H252.077V133.944C252.077 151.418 291.245 153.845 291.245 133.944V95.1123H289.236V133.944C288.232 150.933 254.588 148.506 254.588 133.944V95.1123Z" fill="#2C7BC8"/>
<path d="M273.167 96.1097H270.154L274.172 90.1253H277.185L273.167 96.1097Z" fill="#2C7BC8"/>
<path d="M295.262 147.975V95.1123H297.27L332.421 145.038V95.1123H334.429V147.975H332.421L297.27 99.028V147.975H295.262Z" fill="#2C7BC8"/>
<path d="M363.554 95.1123H338.446V97.1071H350.498V146.977H338.446V148.972H363.554V146.977H352.506V97.1071H363.554V95.1123Z" fill="#2C7BC8"/>
<path d="M394.449 93.1175C408.654 93.1175 416.93 104.123 418.79 109.424H416.279C413.944 104.647 406.31 95.094 394.449 95.094C379.622 95.094 370.082 107.447 370.082 119.306C370.082 131.165 380.15 144.507 394.449 144.507C405.887 144.507 413.768 135.612 416.279 131.165H418.79C410.755 146.977 395.971 146.977 394.449 146.977C378.116 146.977 367.571 133.157 367.571 119.306C367.571 105.455 378.618 93.1175 394.449 93.1175Z" fill="#2C7BC8"/>
<path fill-rule="evenodd" clip-rule="evenodd" d="M444.162 95.1123H446.148L468 148.972H465.02L458.067 131.345H432.243L425.29 148.972H422.807L444.162 95.1123ZM433.236 129.387L445.155 97.5605L457.074 129.387H433.236Z" fill="#2D7BC8"/>
<path d="M166.162 177.996V179.852H160.237V183.941H164.856V185.796H160.237V191.86H157.947V177.996H166.162Z" fill="#2C7BC8"/>
<path d="M174.591 177.996V191.86H172.301V177.996H174.591Z" fill="#2C7BC8"/>
<path d="M193.083 191.86H190.794L183.904 181.507V191.86H181.614V177.977H183.904L190.794 188.31V177.977H193.083V191.86Z" fill="#2C7BC8"/>
<path d="M208.523 189.028H202.678L201.674 191.86H199.284L204.285 177.977H206.937L211.938 191.86H209.528L208.523 189.028ZM207.881 187.173L205.611 180.729L203.321 187.173H207.881Z" fill="#2C7BC8"/>
<path d="M229.599 191.86H227.309L220.42 181.507V191.86H218.13V177.977H220.42L227.309 188.31V177.977H229.599V191.86Z" fill="#2C7BC8"/>
<path d="M235.86 184.898C235.86 183.542 236.174 182.325 236.804 181.248C237.446 180.171 238.31 179.333 239.395 178.735C240.493 178.123 241.691 177.817 242.99 177.817C244.476 177.817 245.795 178.183 246.947 178.914C248.112 179.632 248.956 180.656 249.478 181.986H246.726C246.364 181.255 245.862 180.709 245.22 180.35C244.577 179.991 243.834 179.812 242.99 179.812C242.066 179.812 241.243 180.018 240.519 180.43C239.796 180.842 239.227 181.434 238.812 182.206C238.41 182.977 238.21 183.874 238.21 184.898C238.21 185.922 238.41 186.82 238.812 187.591C239.227 188.363 239.796 188.961 240.519 189.387C241.243 189.799 242.066 190.005 242.99 190.005C243.834 190.005 244.577 189.826 245.22 189.467C245.862 189.108 246.364 188.562 246.726 187.831H249.478C248.956 189.161 248.112 190.185 246.947 190.903C245.795 191.621 244.476 191.98 242.99 191.98C241.678 191.98 240.479 191.681 239.395 191.082C238.31 190.471 237.446 189.626 236.804 188.549C236.174 187.472 235.86 186.255 235.86 184.898Z" fill="#2C7BC8"/>
<path d="M258.465 179.832V183.901H263.286V185.756H258.465V190.005H263.888V191.86H256.175V177.977H263.888V179.832H258.465Z" fill="#2C7BC8"/>
<path d="M273.015 177.996V191.86H270.726V177.996H273.015Z" fill="#2C7BC8"/>
<path d="M287.29 191.86L284.076 186.315H282.329V191.86H280.039V177.996H284.859C285.931 177.996 286.835 178.183 287.571 178.555C288.321 178.927 288.877 179.426 289.238 180.051C289.613 180.676 289.801 181.374 289.801 182.146C289.801 183.05 289.533 183.875 288.997 184.619C288.475 185.351 287.665 185.849 286.567 186.115L290.021 191.86H287.29ZM282.329 184.5H284.859C285.716 184.5 286.359 184.287 286.788 183.861C287.23 183.436 287.451 182.864 287.451 182.146C287.451 181.428 287.236 180.869 286.808 180.47C286.379 180.058 285.73 179.852 284.859 179.852H282.329V184.5Z" fill="#2C7BC8"/>
<path d="M303.114 192C301.815 192 300.617 191.701 299.519 191.102C298.434 190.491 297.57 189.646 296.928 188.569C296.298 187.478 295.984 186.255 295.984 184.898C295.984 183.542 296.298 182.325 296.928 181.248C297.57 180.171 298.434 179.333 299.519 178.735C300.617 178.123 301.815 177.817 303.114 177.817C304.426 177.817 305.625 178.123 306.71 178.735C307.808 179.333 308.671 180.171 309.301 181.248C309.93 182.325 310.245 183.542 310.245 184.898C310.245 186.255 309.93 187.478 309.301 188.569C308.671 189.646 307.808 190.491 306.71 191.102C305.625 191.701 304.426 192 303.114 192ZM303.114 190.025C304.038 190.025 304.862 189.819 305.585 189.407C306.308 188.981 306.87 188.383 307.272 187.611C307.687 186.827 307.895 185.922 307.895 184.898C307.895 183.874 307.687 182.977 307.272 182.206C306.87 181.434 306.308 180.842 305.585 180.43C304.862 180.018 304.038 179.812 303.114 179.812C302.19 179.812 301.367 180.018 300.644 180.43C299.921 180.842 299.351 181.434 298.936 182.206C298.535 182.977 298.334 183.874 298.334 184.898C298.334 185.922 298.535 186.827 298.936 187.611C299.351 188.383 299.921 188.981 300.644 189.407C301.367 189.819 302.19 190.025 303.114 190.025Z" fill="#2C7BC8"/>
</svg>
